# xmcd
#
# Track frame offsets:
#	182
#	15517
#	28830
#	38770
#	50315
#	61710
#	74045
#	87480
#	100690
#	114457
#	129340
#	138090
#	151260
#	166677
#	178715
#	188590
#
# Disc length: 2679
#
# Revision: 1
# Processed by: cddbd v1.5.1PL0 Copyright (c) Steve Scherf et al.
# Submitted via: CDex 1.50Beta7
# Normalized: r0:DSETVAR1
#
DISCID=c40a7510
DTITLE=Various Artist - Country Love
DYEAR=1995
DGENRE=Country
TTITLE0=Billie Jo Spears - Blanket On The Ground
TTITLE1=Don Williams - Where Do I Go From Here
TTITLE2=Crystal Gayle - Break My Mind
TTITLE3=Patsy Cline - Walking After Midnight
TTITLE4=George Jones - Talk Back Trembling Lips
TTITLE5=Crystal Gayle - Don't It Make My Brown Eyes Blue
TTITLE6=Kenny Rogers and The First Edition - Ruby, Don't Take Your Love To Tovn
TTITLE7=Wanda Jackson - I Fall To Pieces
TTITLE8=Charley Pride - Can't Stop The Mississippi
TTITLE9=Billie Jo Spears - Midnight Love
TTITLE10=Waylon Jennings - Loves Gonna Live Here
TTITLE11=Lynn Anderson - Rose Garden
TTITLE12=Jo Ann Huston - Always On My Mind
TTITLE13=Billie Jo Spears - Misty Blue
TTITLE14=Hank Locklin - Please Help Me I'm Falling
TTITLE15=Wanda Jackson - Crazy
EXTD=YEAR: 1995
EXTT0=
EXTT1=
EXTT2=
EXTT3=
EXTT4=
EXTT5=
EXTT6=
EXTT7=
EXTT8=
EXTT9=
EXTT10=
EXTT11=
EXTT12=
EXTT13=
EXTT14=
EXTT15=
PLAYORDER=
